<?xml version="1.0" encoding="UTF-8"?>
<!DOCTYPE svg PUBLIC "-//W3C//DTD SVG 1.1//EN" "http://www.w3.org/Graphics/SVG/1.1/DTD/svg11.dtd">
<svg xmlns="http://www.w3.org/2000/svg" version="1.1" width="500px" height="500px" style="shape-rendering:geometricPrecision; text-rendering:geometricPrecision; image-rendering:optimizeQuality; fill-rule:evenodd; clip-rule:evenodd" xmlns:xlink="http://www.w3.org/1999/xlink">
<g><path style="opacity:1" fill="#fefefe" d="M -0.5,-0.5 C 166.167,-0.5 332.833,-0.5 499.5,-0.5C 499.5,166.167 499.5,332.833 499.5,499.5C 332.833,499.5 166.167,499.5 -0.5,499.5C -0.5,332.833 -0.5,166.167 -0.5,-0.5 Z"/></g>
<g><path style="opacity:1" fill="#ed6819" d="M 244.5,102.5 C 245.734,105.535 245.734,108.535 244.5,111.5C 238.757,112.115 233.091,113.115 227.5,114.5C 225.645,114.728 224.812,114.061 225,112.5C 228.167,109.333 231.333,106.167 234.5,103C 237.817,102.502 241.15,102.335 244.5,102.5 Z"/></g>
<g><path style="opacity:1" fill="#f0821b" d="M 230.5,102.5 C 231.239,102.369 231.906,102.536 232.5,103C 229.333,106.167 226.167,109.333 223,112.5C 220.418,110.772 218.918,108.439 218.5,105.5C 222.163,103.584 226.163,102.584 230.5,102.5 Z"/></g>
<g><path style="opacity:1" fill="#ea4a29" d="M 244.5,102.5 C 245.833,102.5 247.167,102.5 248.5,102.5C 255.287,102.97 261.954,104.136 268.5,106C 272.887,106.706 277.22,106.54 281.5,105.5C 282.404,106.209 282.737,107.209 282.5,108.5C 279.921,108.083 277.754,108.75 276,110.5C 275.326,109.422 274.326,108.755 273,108.5C 270.254,109.131 267.754,110.131 265.5,111.5C 258.5,111.5 251.5,111.5 244.5,111.5C 245.734,108.535 245.734,105.535 244.5,102.5 Z"/></g>
<g><path style="opacity:1" fill="#e48435" d="M 230.5,102.5 C 236.5,101.167 242.5,101.167 248.5,102.5C 247.167,102.5 245.833,102.5 244.5,102.5C 241.15,102.335 237.817,102.502 234.5,103C 231.333,106.167 228.167,109.333 225,112.5C 224.812,114.061 225.645,114.728 227.5,114.5C 225.11,116.02 222.443,117.02 219.5,117.5C 217.901,117.768 216.568,117.434 215.5,116.5C 218.278,116.978 220.278,115.978 221.5,113.5C 219.702,110.783 217.369,108.783 214.5,107.5C 215.514,106.326 216.847,105.66 218.5,105.5C 218.918,108.439 220.418,110.772 223,112.5C 226.167,109.333 229.333,106.167 232.5,103C 231.906,102.536 231.239,102.369 230.5,102.5 Z"/></g>
<g><path style="opacity:1" fill="#f6e4e6" d="M 282.5,108.5 C 283.338,108.842 283.672,109.508 283.5,110.5C 278.57,111.648 273.57,112.315 268.5,112.5C 267.791,111.596 266.791,111.263 265.5,111.5C 267.754,110.131 270.254,109.131 273,108.5C 274.326,108.755 275.326,109.422 276,110.5C 277.754,108.75 279.921,108.083 282.5,108.5 Z"/></g>
<g><path style="opacity:1" fill="#ef8f17" d="M 214.5,107.5 C 217.369,108.783 219.702,110.783 221.5,113.5C 220.278,115.978 218.278,116.978 215.5,116.5C 208.076,113.942 207.742,110.942 214.5,107.5 Z"/></g>
<g><path style="opacity:1" fill="#9f9c9d" d="M 297.5,100.5 C 297.414,101.496 297.748,102.329 298.5,103C 292.703,109.052 289.703,116.219 289.5,124.5C 289.5,123.833 289.167,123.5 288.5,123.5C 288.672,122.508 288.338,121.842 287.5,121.5C 287.672,120.508 287.338,119.842 286.5,119.5C 286.5,118.167 285.833,117.5 284.5,117.5C 284.918,116.778 285.584,116.278 286.5,116C 285.944,115.617 285.611,115.117 285.5,114.5C 285.167,113.833 284.833,113.167 284.5,112.5C 284.672,111.508 284.338,110.842 283.5,110.5C 283.672,109.508 283.338,108.842 282.5,108.5C 282.737,107.209 282.404,106.209 281.5,105.5C 281.809,102.654 283.475,101.154 286.5,101C 290.152,100.501 293.818,100.335 297.5,100.5 Z"/></g>
<g><path style="opacity:1" fill="#442f92" d="M 283.5,110.5 C 284.338,110.842 284.672,111.508 284.5,112.5C 280.758,111.726 278.258,113.059 277,116.5C 276.196,115.196 275.029,114.529 273.5,114.5C 271.506,115.489 269.506,116.489 267.5,117.5C 258.895,119.661 250.228,121.661 241.5,123.5C 241.493,120.962 241.159,118.462 240.5,116C 240.755,114.674 241.422,113.674 242.5,113C 251.16,112.5 259.827,112.334 268.5,112.5C 273.57,112.315 278.57,111.648 283.5,110.5 Z"/></g>
<g><path style="opacity:1" fill="#bdbcbc" d="M 297.5,100.5 C 304.861,103.897 307.361,109.564 305,117.5C 302.137,122.867 297.637,126.2 291.5,127.5C 290.818,126.757 290.151,126.091 289.5,125.5C 289.5,125.167 289.5,124.833 289.5,124.5C 289.703,116.219 292.703,109.052 298.5,103C 297.748,102.329 297.414,101.496 297.5,100.5 Z"/></g>
<g><path style="opacity:1" fill="#eeeef6" d="M 284.5,112.5 C 284.833,113.167 285.167,113.833 285.5,114.5C 282.6,115.895 279.6,117.061 276.5,118C 273.304,118.805 270.304,118.638 267.5,117.5C 269.506,116.489 271.506,115.489 273.5,114.5C 275.029,114.529 276.196,115.196 277,116.5C 278.258,113.059 280.758,111.726 284.5,112.5 Z"/></g>
<g><path style="opacity:1" fill="#562a90" d="M 244.5,111.5 C 251.5,111.5 258.5,111.5 265.5,111.5C 266.791,111.263 267.791,111.596 268.5,112.5C 259.827,112.334 251.16,112.5 242.5,113C 241.422,113.674 240.755,114.674 240.5,116C 241.159,118.462 241.493,120.962 241.5,123.5C 240.833,123.5 240.5,123.833 240.5,124.5C 239.209,124.263 238.209,124.596 237.5,125.5C 233.24,126.632 229.24,128.299 225.5,130.5C 219.983,131.406 215.317,129.906 211.5,126C 213.682,122.653 216.349,119.819 219.5,117.5C 222.443,117.02 225.11,116.02 227.5,114.5C 233.091,113.115 238.757,112.115 244.5,111.5 Z"/></g>
<g><path style="opacity:1" fill="#f0e9ed" d="M 284.5,117.5 C 285.833,117.5 286.5,118.167 286.5,119.5C 284.287,120.773 281.954,121.773 279.5,122.5C 279.5,121.167 279.5,119.833 279.5,118.5C 281.216,118.371 282.883,118.038 284.5,117.5 Z"/></g>
<g><path style="opacity:1" fill="#ede4ea" d="M 279.5,122.5 C 278.942,123.79 277.942,124.623 276.5,125C 273.832,125.567 271.166,126.067 268.5,126.5C 270.604,124.901 272.604,123.068 274.5,121C 276.495,120.387 278.162,120.887 279.5,122.5 Z"/></g>
<g><path style="opacity:1" fill="#3e5faf" d="M 285.5,114.5 C 285.611,115.117 285.944,115.617 286.5,116C 285.584,116.278 284.918,116.778 284.5,117.5C 282.883,118.038 281.216,118.371 279.5,118.5C 279.5,119.833 279.5,121.167 279.5,122.5C 278.162,120.887 276.495,120.387 274.5,121C 272.604,123.068 270.604,124.901 268.5,126.5C 264.167,129.167 259.833,131.833 255.5,134.5C 253.261,131.127 251.594,127.46 250.5,123.5C 247.14,123.616 243.807,123.949 240.5,124.5C 240.5,123.833 240.833,123.5 241.5,123.5C 250.228,121.661 258.895,119.661 267.5,117.5C 270.304,118.638 273.304,118.805 276.5,118C 279.6,117.061 282.6,115.895 285.5,114.5 Z"/></g>
<g><path style="opacity:1" fill="#3f72be" d="M 255.5,134.5 C 253.711,135.877 251.711,136.877 249.5,137.5C 245.113,133.956 241.113,129.956 237.5,125.5C 238.209,124.596 239.209,124.263 240.5,124.5C 243.807,123.949 247.14,123.616 250.5,123.5C 251.594,127.46 253.261,131.127 255.5,134.5 Z"/></g>
<g><path style="opacity:1" fill="#f3eae6" d="M 287.5,121.5 C 288.338,121.842 288.672,122.508 288.5,123.5C 283.965,127.268 278.965,130.268 273.5,132.5C 274.543,129.944 276.21,127.777 278.5,126C 279.549,125.508 280.549,125.674 281.5,126.5C 282.76,123.88 284.76,122.213 287.5,121.5 Z"/></g>
<g><path style="opacity:1" fill="#4685c9" d="M 237.5,125.5 C 241.113,129.956 245.113,133.956 249.5,137.5C 248.5,138.167 247.5,138.833 246.5,139.5C 242.009,141.41 237.343,142.743 232.5,143.5C 231.896,140.003 230.73,136.67 229,133.5C 228.184,132.177 227.017,131.511 225.5,131.5C 225.5,131.167 225.5,130.833 225.5,130.5C 229.24,128.299 233.24,126.632 237.5,125.5 Z"/></g>
<g><path style="opacity:1" fill="#bd2424" d="M 286.5,119.5 C 287.338,119.842 287.672,120.508 287.5,121.5C 284.76,122.213 282.76,123.88 281.5,126.5C 280.549,125.674 279.549,125.508 278.5,126C 276.21,127.777 274.543,129.944 273.5,132.5C 267.869,137.977 261.869,142.977 255.5,147.5C 253.854,145.188 251.854,143.188 249.5,141.5C 243.455,146.522 238.455,151.855 234.5,157.5C 234.5,157.833 234.5,158.167 234.5,158.5C 230.5,158.5 226.5,158.5 222.5,158.5C 222.232,156.901 222.566,155.568 223.5,154.5C 223.5,155.5 223.5,156.5 223.5,157.5C 226.187,157.664 228.854,157.497 231.5,157C 237.167,151.333 242.833,145.667 248.5,140C 247.906,139.536 247.239,139.369 246.5,139.5C 247.5,138.833 248.5,138.167 249.5,137.5C 251.711,136.877 253.711,135.877 255.5,134.5C 259.833,131.833 264.167,129.167 268.5,126.5C 271.166,126.067 273.832,125.567 276.5,125C 277.942,124.623 278.942,123.79 279.5,122.5C 281.954,121.773 284.287,120.773 286.5,119.5 Z"/></g>
<g><path style="opacity:1" fill="#4f9bd9" d="M 225.5,131.5 C 227.017,131.511 228.184,132.177 229,133.5C 230.73,136.67 231.896,140.003 232.5,143.5C 231.833,143.833 231.167,144.167 230.5,144.5C 212.516,146.044 210.85,141.71 225.5,131.5 Z"/></g>
<g><path style="opacity:1" fill="#cf1e1f" d="M 255.5,147.5 C 255.5,147.833 255.5,148.167 255.5,148.5C 250.968,150.597 246.635,152.931 242.5,155.5C 239.888,156.371 237.221,157.037 234.5,157.5C 238.455,151.855 243.455,146.522 249.5,141.5C 251.854,143.188 253.854,145.188 255.5,147.5 Z"/></g>
<g><path style="opacity:1" fill="#64b035" d="M 288.5,123.5 C 289.167,123.5 289.5,123.833 289.5,124.5C 289.5,124.833 289.5,125.167 289.5,125.5C 286.546,127.28 283.713,129.28 281,131.5C 276.108,140.222 269.941,147.889 262.5,154.5C 260.761,151.757 258.427,149.757 255.5,148.5C 255.5,148.167 255.5,147.833 255.5,147.5C 261.869,142.977 267.869,137.977 273.5,132.5C 278.965,130.268 283.965,127.268 288.5,123.5 Z"/></g>
<g><path style="opacity:1" fill="#de2026" d="M 246.5,139.5 C 247.239,139.369 247.906,139.536 248.5,140C 242.833,145.667 237.167,151.333 231.5,157C 228.854,157.497 226.187,157.664 223.5,157.5C 223.5,156.5 223.5,155.5 223.5,154.5C 225.029,150.632 227.363,147.299 230.5,144.5C 231.167,144.167 231.833,143.833 232.5,143.5C 237.343,142.743 242.009,141.41 246.5,139.5 Z"/></g>
<g><path style="opacity:1" fill="#96cc2b" d="M 149.5,166.5 C 146.896,164.4 144.396,162.067 142,159.5C 141.53,158.423 141.697,157.423 142.5,156.5C 156.82,145.225 173.153,139.392 191.5,139C 174.59,143.94 160.59,153.107 149.5,166.5 Z"/></g>
<g><path style="opacity:1" fill="#84c029" d="M 255.5,148.5 C 258.427,149.757 260.761,151.757 262.5,154.5C 258.909,158.299 254.909,161.633 250.5,164.5C 249.943,159.61 247.276,156.61 242.5,155.5C 246.635,152.931 250.968,150.597 255.5,148.5 Z"/></g>
<g><path style="opacity:1" fill="#9acc24" d="M 242.5,155.5 C 247.276,156.61 249.943,159.61 250.5,164.5C 244.644,167.881 238.311,169.548 231.5,169.5C 231.12,165.429 232.12,161.762 234.5,158.5C 234.5,158.167 234.5,157.833 234.5,157.5C 237.221,157.037 239.888,156.371 242.5,155.5 Z"/></g>
<g><path style="opacity:1" fill="#79bd2b" d="M 142.5,156.5 C 141.697,157.423 141.53,158.423 142,159.5C 144.396,162.067 146.896,164.4 149.5,166.5C 143.582,175.587 140.249,185.587 139.5,196.5C 136.369,199.129 133.369,201.962 130.5,205C 121.063,205.431 117.063,200.931 118.5,191.5C 121.772,176.566 129.772,164.9 142.5,156.5 Z"/></g>
<g><path style="opacity:1" fill="#b43097" d="M 187.5,196.5 C 187.191,201.819 184.524,205.485 179.5,207.5C 174.952,197.043 176.452,187.377 184,178.5C 194.449,167.309 195.782,167.975 188,180.5C 186.265,185.8 186.098,191.133 187.5,196.5 Z"/></g>
<g><path style="opacity:1" fill="#64b330" d="M 118.5,191.5 C 117.063,200.931 121.063,205.431 130.5,205C 133.369,201.962 136.369,199.129 139.5,196.5C 139.691,203.982 140.858,211.315 143,218.5C 145.937,224.712 149.104,230.712 152.5,236.5C 149.52,239.144 146.52,241.811 143.5,244.5C 136.099,237.429 128.766,230.429 121.5,223.5C 117.635,212.984 116.635,202.318 118.5,191.5 Z"/></g>
<g><path style="opacity:1" fill="#952c94" d="M 187.5,196.5 C 190.598,203.612 194.931,209.945 200.5,215.5C 196.605,216.952 192.938,218.619 189.5,220.5C 184.637,217.309 181.304,212.975 179.5,207.5C 184.524,205.485 187.191,201.819 187.5,196.5 Z"/></g>
<g><path style="opacity:1" fill="#7a2f94" d="M 200.5,215.5 C 205.523,218.867 210.523,222.2 215.5,225.5C 213.332,229.012 210.332,231.345 206.5,232.5C 199.719,230.048 194.052,226.048 189.5,220.5C 192.938,218.619 196.605,216.952 200.5,215.5 Z"/></g>
<g><path style="opacity:1" fill="#f08b22" d="M 176.5,231.5 C 174.273,232.401 173.273,234.067 173.5,236.5C 167.345,231.536 163.178,225.203 161,217.5C 160.333,213.5 160.333,209.5 161,205.5C 163.347,215.862 168.513,224.529 176.5,231.5 Z"/></g>
<g><path style="opacity:1" fill="#a4a8d0" d="M 377.5,228.5 C 377.5,227.833 377.167,227.5 376.5,227.5C 377.875,225.93 379.541,225.097 381.5,225C 380.295,226.376 378.962,227.542 377.5,228.5 Z"/></g>
<g><path style="opacity:1" fill="#5c3494" d="M 215.5,225.5 C 222.93,229.088 230.597,232.088 238.5,234.5C 239.794,239.56 237.794,242.56 232.5,243.5C 223.233,240.975 214.566,237.309 206.5,232.5C 210.332,231.345 213.332,229.012 215.5,225.5 Z"/></g>
<g><path style="opacity:1" fill="#ed7426" d="M 176.5,231.5 C 184.244,236.702 192.244,241.369 200.5,245.5C 198.972,245.517 198.472,246.184 199,247.5C 201.372,249.703 203.539,252.037 205.5,254.5C 193.597,250.552 182.93,244.552 173.5,236.5C 173.273,234.067 174.273,232.401 176.5,231.5 Z"/></g>
<g><path style="opacity:1" fill="#363d95" d="M 376.5,227.5 C 377.167,227.5 377.5,227.833 377.5,228.5C 354.745,243.019 329.745,250.352 302.5,250.5C 289.494,250.369 276.494,250.036 263.5,249.5C 252.939,248.521 242.606,246.521 232.5,243.5C 237.794,242.56 239.794,239.56 238.5,234.5C 252.065,239.296 266.065,241.963 280.5,242.5C 286.157,243.166 291.99,243.499 298,243.5C 308.039,243.605 317.872,242.938 327.5,241.5C 344.79,240.069 361.124,235.402 376.5,227.5 Z"/></g>
<g><path style="opacity:1" fill="#c7c9e1" d="M 327.5,241.5 C 317.872,242.938 308.039,243.605 298,243.5C 291.99,243.499 286.157,243.166 280.5,242.5C 296.177,242.55 311.844,242.217 327.5,241.5 Z"/></g>
<g><path style="opacity:1" fill="#5baa42" d="M 121.5,223.5 C 128.766,230.429 136.099,237.429 143.5,244.5C 146.52,241.811 149.52,239.144 152.5,236.5C 153.167,236.5 153.5,236.833 153.5,237.5C 150.369,240.129 147.369,242.962 144.5,246C 152.369,253.702 160.036,261.535 167.5,269.5C 146.496,259.83 131.163,244.496 121.5,223.5 Z"/></g>
<g><path style="opacity:1" fill="#6c72b2" d="M 263.5,249.5 C 276.494,250.036 289.494,250.369 302.5,250.5C 289.471,251.792 276.471,251.459 263.5,249.5 Z"/></g>
<g><path style="opacity:1" fill="#ee5128" d="M 200.5,245.5 C 213.249,250.861 226.249,255.194 239.5,258.5C 236.708,258.91 235.708,260.244 236.5,262.5C 225.83,261.053 215.497,258.386 205.5,254.5C 203.539,252.037 201.372,249.703 199,247.5C 198.472,246.184 198.972,245.517 200.5,245.5 Z"/></g>
<g><path style="opacity:1" fill="#ed342f" d="M 239.5,258.5 C 251.745,260.582 264.078,261.916 276.5,262.5C 284.167,263.167 291.833,263.833 299.5,264.5C 278.389,266.326 257.389,265.66 236.5,262.5C 235.708,260.244 236.708,258.91 239.5,258.5 Z"/></g>
<g><path style="opacity:1" fill="#fab5b6" d="M 276.5,262.5 C 287.172,262.333 297.839,262.5 308.5,263C 305.522,263.696 302.522,264.196 299.5,264.5C 291.833,263.833 284.167,263.167 276.5,262.5 Z"/></g>
<g><path style="opacity:1" fill="#44a339" d="M 153.5,237.5 C 168.299,254.945 186.632,267.278 208.5,274.5C 208.423,275.75 207.756,276.583 206.5,277C 200.625,279.371 194.625,279.871 188.5,278.5C 180.862,276.844 173.862,273.844 167.5,269.5C 160.036,261.535 152.369,253.702 144.5,246C 147.369,242.962 150.369,240.129 153.5,237.5 Z"/></g>
<g><path style="opacity:1" fill="#3b9e44" d="M 208.5,274.5 C 219.447,278.548 230.78,280.881 242.5,281.5C 248.167,282.167 253.833,282.833 259.5,283.5C 244.578,285.474 229.578,285.974 214.5,285C 205.437,283.914 196.771,281.747 188.5,278.5C 194.625,279.871 200.625,279.371 206.5,277C 207.756,276.583 208.423,275.75 208.5,274.5 Z"/></g>
<g><path style="opacity:1" fill="#a8d4b0" d="M 242.5,281.5 C 249.508,281.334 256.508,281.5 263.5,282C 262.255,282.791 260.922,283.291 259.5,283.5C 253.833,282.833 248.167,282.167 242.5,281.5 Z"/></g>
<g><path style="opacity:1" fill="#4776c0" d="M 354.5,324.5 C 365.53,324.37 369.696,329.704 367,340.5C 364.646,346.095 360.479,347.928 354.5,346C 352.333,345.167 350.833,343.667 350,341.5C 349.333,337.5 349.333,333.5 350,329.5C 351.025,327.313 352.525,325.646 354.5,324.5 Z"/></g>
<g><path style="opacity:1" fill="#4977c0" d="M 107.5,324.5 C 113.5,324.5 119.5,324.5 125.5,324.5C 125.5,325.833 125.5,327.167 125.5,328.5C 123.167,328.5 120.833,328.5 118.5,328.5C 118.5,334.5 118.5,340.5 118.5,346.5C 116.833,346.5 115.167,346.5 113.5,346.5C 113.5,340.5 113.5,334.5 113.5,328.5C 111.5,328.5 109.5,328.5 107.5,328.5C 107.5,327.167 107.5,325.833 107.5,324.5 Z"/></g>
<g><path style="opacity:1" fill="#4675c0" d="M 129.5,324.5 C 142.707,323.197 147.874,328.864 145,341.5C 140.861,345.928 135.694,347.594 129.5,346.5C 129.5,339.167 129.5,331.833 129.5,324.5 Z"/></g>
<g><path style="opacity:1" fill="#4b78c1" d="M 150.5,324.5 C 155.5,324.5 160.5,324.5 165.5,324.5C 165.5,325.833 165.5,327.167 165.5,328.5C 162.167,328.5 158.833,328.5 155.5,328.5C 155.5,330.167 155.5,331.833 155.5,333.5C 158.5,333.5 161.5,333.5 164.5,333.5C 164.5,334.833 164.5,336.167 164.5,337.5C 161.5,337.5 158.5,337.5 155.5,337.5C 155.5,339.167 155.5,340.833 155.5,342.5C 158.833,342.5 162.167,342.5 165.5,342.5C 165.5,343.833 165.5,345.167 165.5,346.5C 160.5,346.5 155.5,346.5 150.5,346.5C 150.5,339.167 150.5,331.833 150.5,324.5 Z"/></g>
<g><path style="opacity:1" fill="#4775c0" d="M 168.5,324.5 C 170.288,324.215 171.955,324.548 173.5,325.5C 174.999,330.161 176.499,334.828 178,339.5C 179.599,334.87 181.099,330.203 182.5,325.5C 184.045,324.548 185.712,324.215 187.5,324.5C 185.771,331.686 183.438,338.686 180.5,345.5C 178.326,346.893 176.493,346.56 175,344.5C 172.722,337.835 170.556,331.168 168.5,324.5 Z"/></g>
<g><path style="opacity:1" fill="#4a77c1" d="M 200.5,324.5 C 205.267,324.191 209.934,324.691 214.5,326C 217.167,329 217.167,332 214.5,335C 218.092,337.971 218.425,341.304 215.5,345C 210.599,346.325 205.599,346.825 200.5,346.5C 200.5,339.167 200.5,331.833 200.5,324.5 Z"/></g>
<g><path style="opacity:1" fill="#4775c0" d="M 228.5,324.5 C 230.167,324.5 231.833,324.5 233.5,324.5C 235.833,331.833 238.167,339.167 240.5,346.5C 238.833,346.5 237.167,346.5 235.5,346.5C 235.5,345.167 235.5,343.833 235.5,342.5C 232.482,342.335 229.482,342.502 226.5,343C 225.663,344.011 225.33,345.178 225.5,346.5C 223.712,346.785 222.045,346.452 220.5,345.5C 223.175,338.471 225.842,331.471 228.5,324.5 Z"/></g>
<g><path style="opacity:1" fill="#4574bf" d="M 244.5,324.5 C 259.904,323.5 264.571,330 258.5,344C 254.116,346.208 249.449,347.041 244.5,346.5C 244.5,339.167 244.5,331.833 244.5,324.5 Z"/></g>
<g><path style="opacity:1" fill="#4574bf" d="M 266.5,324.5 C 268.604,324.201 270.604,324.534 272.5,325.5C 274.431,330.127 276.265,334.794 278,339.5C 279.81,334.571 281.31,329.571 282.5,324.5C 284.833,324.5 287.167,324.5 289.5,324.5C 289.5,331.833 289.5,339.167 289.5,346.5C 287.833,346.5 286.167,346.5 284.5,346.5C 285.509,330.836 283.842,330.503 279.5,345.5C 278.311,346.429 276.978,346.762 275.5,346.5C 274.316,341.446 272.816,336.446 271,331.5C 270.501,336.489 270.334,341.489 270.5,346.5C 269.167,346.5 267.833,346.5 266.5,346.5C 266.5,339.167 266.5,331.833 266.5,324.5 Z"/></g>
<g><path style="opacity:1" fill="#3c6fbd" d="M 295.5,324.5 C 296.833,324.5 298.167,324.5 299.5,324.5C 299.5,331.833 299.5,339.167 299.5,346.5C 298.167,346.5 296.833,346.5 295.5,346.5C 295.5,339.167 295.5,331.833 295.5,324.5 Z"/></g>
<g><path style="opacity:1" fill="#4776c0" d="M 305.5,324.5 C 307.288,324.215 308.955,324.548 310.5,325.5C 313.25,329.332 315.75,333.332 318,337.5C 318.499,333.179 318.666,328.846 318.5,324.5C 320.167,324.5 321.833,324.5 323.5,324.5C 323.5,331.833 323.5,339.167 323.5,346.5C 321.801,346.66 320.134,346.494 318.5,346C 316.124,342.081 313.624,338.248 311,334.5C 310.501,338.486 310.334,342.486 310.5,346.5C 308.833,346.5 307.167,346.5 305.5,346.5C 305.5,339.167 305.5,331.833 305.5,324.5 Z"/></g>
<g><path style="opacity:1" fill="#3f71be" d="M 327.5,324.5 C 333.5,324.5 339.5,324.5 345.5,324.5C 345.5,325.833 345.5,327.167 345.5,328.5C 343.167,328.5 340.833,328.5 338.5,328.5C 338.5,334.5 338.5,340.5 338.5,346.5C 337.167,346.5 335.833,346.5 334.5,346.5C 334.5,340.5 334.5,334.5 334.5,328.5C 332.167,328.5 329.833,328.5 327.5,328.5C 327.5,327.167 327.5,325.833 327.5,324.5 Z"/></g>
<g><path style="opacity:1" fill="#4776c0" d="M 372.5,324.5 C 374.288,324.215 375.955,324.548 377.5,325.5C 380.25,329.332 382.75,333.332 385,337.5C 385.499,333.179 385.666,328.846 385.5,324.5C 387.167,324.5 388.833,324.5 390.5,324.5C 390.5,331.833 390.5,339.167 390.5,346.5C 388.801,346.66 387.134,346.494 385.5,346C 383.124,342.081 380.624,338.248 378,334.5C 377.501,338.486 377.334,342.486 377.5,346.5C 375.833,346.5 374.167,346.5 372.5,346.5C 372.5,339.167 372.5,331.833 372.5,324.5 Z"/></g>
<g><path style="opacity:1" fill="#f9fafd" d="M 134.5,328.5 C 139.491,328.158 141.824,330.491 141.5,335.5C 141.824,340.509 139.491,342.842 134.5,342.5C 134.5,337.833 134.5,333.167 134.5,328.5 Z"/></g>
<g><path style="opacity:1" fill="#eff2f9" d="M 205.5,328.5 C 207.527,328.338 209.527,328.505 211.5,329C 212.833,330.333 212.833,331.667 211.5,333C 209.527,333.495 207.527,333.662 205.5,333.5C 205.5,331.833 205.5,330.167 205.5,328.5 Z"/></g>
<g><path style="opacity:1" fill="#fafbfd" d="M 249.5,328.5 C 254.486,327.972 256.819,330.139 256.5,335C 257.187,340.509 254.854,343.009 249.5,342.5C 249.5,337.833 249.5,333.167 249.5,328.5 Z"/></g>
<g><path style="opacity:1" fill="#f5f7fb" d="M 355.5,328.5 C 358.044,328.104 360.211,328.771 362,330.5C 362.76,334.225 362.593,337.892 361.5,341.5C 358.23,343.214 355.73,342.548 354,339.5C 353.112,335.598 353.612,331.931 355.5,328.5 Z"/></g>
<g><path style="opacity:1" fill="#dce4f3" d="M 230.5,330.5 C 231.67,332.65 232.67,334.984 233.5,337.5C 231.955,338.452 230.288,338.785 228.5,338.5C 228.56,335.659 229.226,332.993 230.5,330.5 Z"/></g>
<g><path style="opacity:1" fill="#fafbfd" d="M 205.5,337.5 C 207.527,337.338 209.527,337.505 211.5,338C 212.833,339.333 212.833,340.667 211.5,342C 209.527,342.495 207.527,342.662 205.5,342.5C 205.5,340.833 205.5,339.167 205.5,337.5 Z"/></g>
<g><path style="opacity:1" fill="#6188c9" d="M 178.5,365.5 C 181.14,367.879 181.14,370.379 178.5,373C 176.527,373.495 174.527,373.662 172.5,373.5C 172.5,370.167 172.5,366.833 172.5,363.5C 174.898,363.259 176.898,363.926 178.5,365.5 Z"/></g>
<g><path style="opacity:1" fill="#eff3f9" d="M 178.5,365.5 C 180.389,370.286 178.722,372.619 173.5,372.5C 173.36,370.876 174.027,369.71 175.5,369C 174.027,368.29 173.36,367.124 173.5,365.5C 175.167,365.5 176.833,365.5 178.5,365.5 Z"/></g>
<g><path style="opacity:1" fill="#9bb5dd" d="M 254.5,363.5 C 256.267,362.35 257.433,363.017 258,365.5C 258.818,368.227 258.652,370.894 257.5,373.5C 256.679,370.553 256.179,367.553 256,364.5C 255.617,363.944 255.117,363.611 254.5,363.5 Z"/></g>
<g><path style="opacity:1" fill="#7f9fd3" d="M 277.5,365.5 C 279.5,365.833 281.5,366.167 283.5,366.5C 283.5,368.833 283.5,371.167 283.5,373.5C 276.251,374.283 274.251,371.616 277.5,365.5 Z"/></g>
<g><path style="opacity:1" fill="#7b9bd2" d="M 307.5,365.5 C 310.162,366.639 312.829,366.806 315.5,366C 317.619,368.218 317.952,370.718 316.5,373.5C 315.534,371.604 315.201,369.604 315.5,367.5C 314.5,367.5 313.5,367.5 312.5,367.5C 311.833,375.5 311.167,375.5 310.5,367.5C 309.167,367.5 307.833,367.5 306.5,367.5C 306.662,369.527 306.495,371.527 306,373.5C 305.133,370.479 305.633,367.812 307.5,365.5 Z"/></g>
<g><path style="opacity:1" fill="#fafcfd" d="M 277.5,367.5 C 278.833,367.5 280.167,367.5 281.5,367.5C 281.5,369.167 281.5,370.833 281.5,372.5C 278.09,372.616 276.756,370.95 277.5,367.5 Z"/></g>
<g><path style="opacity:1" fill="#7a9bd1" d="M 289.5,365.5 C 291.787,366.355 294.12,366.522 296.5,366C 298.444,368.153 298.944,370.653 298,373.5C 297.667,371.833 297.333,370.167 297,368.5C 295.989,367.663 294.822,367.33 293.5,367.5C 293.481,374.531 292.981,374.864 292,368.5C 290.989,367.663 289.822,367.33 288.5,367.5C 288.799,369.604 288.466,371.604 287.5,373.5C 286.526,371.257 286.192,368.924 286.5,366.5C 287.791,366.737 288.791,366.404 289.5,365.5 Z"/></g>
<g><path style="opacity:1" fill="#7f9fd3" d="M 193.5,365.5 C 200.065,364.422 202.232,367.089 200,373.5C 199.505,371.527 199.338,369.527 199.5,367.5C 198.167,367.5 196.833,367.5 195.5,367.5C 195.799,369.604 195.466,371.604 194.5,373.5C 193.52,370.914 193.187,368.247 193.5,365.5 Z"/></g>
<g><path style="opacity:1" fill="#7597cf" d="M 208.5,371.5 C 206.889,368.668 207.722,366.668 211,365.5C 211.873,365.735 212.707,366.069 213.5,366.5C 214.833,369.5 214.833,372.5 213.5,375.5C 211.802,376.681 210.135,376.681 208.5,375.5C 210.078,374.702 211.744,374.202 213.5,374C 211.347,373.901 209.681,373.067 208.5,371.5 Z"/></g>
<g><path style="opacity:1" fill="#f7f9fc" d="M 208.5,371.5 C 208.384,368.09 210.05,366.756 213.5,367.5C 214.083,371.929 212.416,373.263 208.5,371.5 Z"/></g>
<g><path style="opacity:1" fill="#8ca7d7" d="M 225.5,362.5 C 227.549,362.706 227.883,363.539 226.5,365C 229.125,367.196 230.125,370.03 229.5,373.5C 227.5,373.5 225.5,373.5 223.5,373.5C 223.241,370.52 224.574,368.687 227.5,368C 226.376,367.751 225.376,367.251 224.5,366.5C 225.246,365.264 225.579,363.93 225.5,362.5 Z"/></g>
<g><path style="opacity:1" fill="#7f9fd3" d="M 232.5,365.5 C 239.065,364.422 241.232,367.089 239,373.5C 238.505,371.527 238.338,369.527 238.5,367.5C 237.167,367.5 235.833,367.5 234.5,367.5C 234.799,369.604 234.466,371.604 233.5,373.5C 232.52,370.914 232.187,368.247 232.5,365.5 Z"/></g>
<g><path style="opacity:1" fill="#6a8ecb" d="M 251.5,369.5 C 251.461,368.244 251.961,367.244 253,366.5C 253.585,367.998 253.085,368.998 251.5,369.5 Z"/></g>
<g><path style="opacity:1" fill="#7c9dd2" d="M 270.5,363.5 C 271.756,363.461 272.756,363.961 273.5,365C 272.556,367.719 272.223,370.552 272.5,373.5C 267.007,374.822 264.507,372.822 265,367.5C 267.167,366.512 269,365.179 270.5,363.5 Z"/></g>
<g><path style="opacity:1" fill="#f5f7fb" d="M 266.5,367.5 C 267.833,367.5 269.167,367.5 270.5,367.5C 270.5,369.167 270.5,370.833 270.5,372.5C 266.745,372.437 265.412,370.77 266.5,367.5 Z"/></g>
<g><path style="opacity:1" fill="#7395cf" d="M 251.5,369.5 C 251.688,371.103 251.188,372.437 250,373.5C 248.126,371.431 247.126,369.098 247,366.5C 248,367.833 249,369.167 250,370.5C 250.383,369.944 250.883,369.611 251.5,369.5 Z"/></g>
<g><path style="opacity:1" fill="#7697d0" d="M 326.5,367.5 C 327.404,368.209 327.737,369.209 327.5,370.5C 325.712,370.215 324.045,370.548 322.5,371.5C 324.108,372.242 325.775,372.409 327.5,372C 325.121,374.148 322.955,373.982 321,371.5C 319.835,368.186 321.002,366.186 324.5,365.5C 325.522,365.855 326.189,366.522 326.5,367.5 Z"/></g>
<g><path style="opacity:1" fill="#d4dff0" d="M 326.5,367.5 C 326.209,368.649 325.376,369.316 324,369.5C 323.167,369.333 322.333,369.167 321.5,369C 322.905,367.731 324.571,367.231 326.5,367.5 Z"/></g>
<g><path style="opacity:1" fill="#7698d0" d="M 185.5,365.5 C 187.46,366.138 189.293,366.138 191,365.5C 191.023,368.051 190.523,370.551 189.5,373C 183.413,373.205 182.079,370.705 185.5,365.5 Z"/></g>
<g><path style="opacity:1" fill="#f3f6fb" d="M 185.5,367.5 C 189.161,367.35 190.161,368.85 188.5,372C 187.552,372.483 186.552,372.649 185.5,372.5C 185.5,370.833 185.5,369.167 185.5,367.5 Z"/></g>
</svg>
